:SAMPLES-PER-SECOND 30
:FULLY-SPECIFIED
:DEGREES
67
root  -11.7297 40.3521 -0.752426 52.5934 -85.5441 -49.179
RightUpLeg  -4.21972 -1.37464 1.44085
RightLeg  6.6335 -27.4697 -1.23029
RightFoot  -3.28998 -0.378603 5.16154
RightToes  -3.13006e-008 1.75238e-005 3.56266e-009
Spine  11.7348 0.792388 5.47529
Spine1  7.7998 1.39111 -0.617133
HEad  -1.65978 -2.07223 -4.9732
LeftShoulder1  3.11844 -7.40015 -22.2973
LeftArm  -25.3765 -25.7453 -63.1887
LeftForeArm  45.8428 -46.6554 -8.61828
LeftHand  -1.11761 -3.11988 15.4177
RightShoulder  3.49114 8.15338 23.7954
RightArm  -27.4976 29.0878 33.9908
RightForeArm  -4.1424 37.8115 8.94691
RightHand  -0.90773 7.15135 -8.73176
LeftUpLeg  -16.3689 7.69902 6.86157
LeftLeg  12.0785 -2.17701 -0.730478
LeftFoot  2.01834 0.365578 -3.22716
LeftToes  4.78512e-008 1.47396e-008 1.32451e-009
68
root  -11.7792 40.3539 -0.777848 53.552 -85.4789 -50.2571
RightUpLeg  -3.70182 -1.3966 1.55766
RightLeg  5.92446 -27.453 -0.821258
RightFoot  -3.12693 -0.365604 4.94114
RightToes  -3.13006e-008 1.75238e-005 3.56266e-009
Spine  10.8339 0.618041 5.61965
Spine1  8.82246 1.19193 -0.592271
HEad  -0.831014 -1.25888 -5.26419
LeftShoulder1  3.09983 -7.26459 -22.4994
LeftArm  -25.8643 -25.7728 -62.3401
LeftForeArm  43.6384 -46.6817 -8.7766
LeftHand  -1.18221 -3.11779 16.3608
RightShoulder  3.42356 8.05849 23.439
RightArm  -26.6312 28.5835 34.3382
RightForeArm  -1.05259 38.7278 9.0516
RightHand  -1.00665 7.10076 -9.66696
LeftUpLeg  -16.2196 7.67837 7.02402
LeftLeg  12.2071 -2.14309 -0.675785
LeftFoot  1.86891 0.364917 -3.24358
LeftToes  4.78512e-008 1.47396e-008 1.32451e-009
69
root  -11.8228 40.3519 -0.795971 56.54 -85.6608 -53.4127
RightUpLeg  -3.23144 -1.34297 1.63912
RightLeg  5.37071 -27.2853 -0.63195
RightFoot  -3.01479 -0.360316 4.83641
RightToes  -3.13006e-008 1.75238e-005 3.56266e-009
Spine  10.0689 0.466708 5.629
Spine1  9.6422 0.997551 -0.516305
HEad  0.358298 -0.307041 -5.54016
LeftShoulder1  3.04779 -6.93738 -22.9219
LeftArm  -26.0271 -26.0979 -61.7084
LeftForeArm  31.8018 -46.4885 -9.51701
LeftHand  -0.914413 -1.22053 16.0692
RightShoulder  3.43005 8.126 23.3154
RightArm  -26.074 28.5813 35.1609
RightForeArm  -0.167092 39.5824 9.27418
RightHand  -1.12482 7.11415 -10.7494
LeftUpLeg  -15.9818 7.60167 7.11772
LeftLeg  12.3873 -1.83919 -0.530558
LeftFoot  1.64088 0.361863 -3.25404
LeftToes  4.78512e-008 1.47396e-008 1.32451e-009
70
root  -11.8348 40.349 -0.816839 60.5305 -85.9621 -57.5588
RightUpLeg  -3.04431 -1.39845 1.58427
RightLeg  5.26077 -26.8353 -0.57686
RightFoot  -3.021 -0.356236 4.7472
RightToes  -3.13006e-008 1.75238e-005 3.56266e-009
Spine  9.96728 0.419815 5.95485
Spine1  9.59075 1.10723 -1.02415
HEad  1.24908 0.454251 -5.72282
LeftShoulder1  3.1368 -7.23564 -22.9428
LeftArm  -27.0428 -26.1445 -61.7923
LeftForeArm  18.3567 -46.415 -10.4623
LeftHand  -0.665317 -0.728827 12.7849
RightShoulder  3.44241 8.05525 23.6194
RightArm  -25.3913 28.1095 36.2937
RightForeArm  0.423502 41.3314 9.82416
RightHand  -1.06523 7.26369 -10.0964
LeftUpLeg  -15.73 7.58082 7.1261
LeftLeg  12.4497 -1.47302 -0.407623
LeftFoot  1.47647 0.364398 -3.34039
LeftToes  4.78512e-008 1.47396e-008 1.32451e-009
71
root  -11.8193 40.3355 -0.850575 69.2809 -86.1813 -66.3863
RightUpLeg  -3.04923 -1.25237 1.75829
RightLeg  5.24707 -26.3871 -0.579367
RightFoot  -3.03688 -0.353126 4.6707
RightToes  -3.13006e-008 1.75238e-005 3.56266e-009
Spine  9.66073 0.319059 6.15485
Spine1  10.141 1.07321 -1.24823
HEad  0.719221 1.40304 -5.7224
LeftShoulder1  3.22735 -7.4165 -23.3074
LeftArm  -27.8633 -26.2756 -61.5556
LeftForeArm  16.3504 -47.3363 -10.9807
LeftHand  -0.644553 -0.726853 12.3377
RightShoulder  3.51801 8.19601 23.922
RightArm  -22.9682 28.0356 37.5413
RightForeArm  2.50606 44.0841 10.6959
RightHand  -1.17874 8.07298 -10.4812
LeftUpLeg  -15.7143 7.93108 7.31862
LeftLeg  12.7927 -1.23487 -0.296896
LeftFoot  1.23844 0.372413 -3.44738
LeftToes  4.78512e-008 1.47396e-008 1.32451e-009
72
root  -11.7863 40.3279 -0.889254 76.2582 -86.3117 -73.3671
RightUpLeg  -3.24364 -1.10759 1.88079
RightLeg  5.44449 -26.0688 -0.690814
RightFoot  -3.05926 -0.351124 4.60991
RightToes  -3.13006e-008 1.75238e-005 3.56266e-009
Spine  9.66787 0.109775 6.03031
Spine1  10.5248 0.860489 -1.27462
HEad  -0.788756 1.98511 -5.50808
LeftShoulder1  3.38371 -7.67349 -24.0643
LeftArm  -27.9608 -26.5751 -60.9459
LeftForeArm  22.503 -48.9365 -11.1898
LeftHand  -0.777408 -1.58573 13.1054
RightShoulder  3.64179 8.40995 24.4487
RightArm  -18.9808 28.0039 38.6986
RightForeArm  4.51129 47.7088 12.0199
RightHand  -1.50567 8.41391 -12.944
LeftUpLeg  -15.7283 7.74087 7.4754
LeftLeg  12.9091 -0.65499 -0.110059
LeftFoot  1.20918 0.393805 -3.64773
LeftToes  4.78512e-008 1.47396e-008 1.32451e-009
